<svg width="24" height="24" viewBox="0 0 24 24" fill="none" xmlns="http://www.w3.org/2000/svg">
<g id="Style=Light-Outline, Icon=Edit">
<g id="Edit">
<path id="Fill 1" fill-rule="evenodd" clip-rule="evenodd" d="M20.7501 21.9397H13.4971C13.0831 21.9397 12.7471 21.6037 12.7471 21.1897C12.7471 20.7757 13.0831 20.4397 13.4971 20.4397H20.7501C21.1641 20.4397 21.5001 20.7757 21.5001 21.1897C21.5001 21.6037 21.1641 21.9397 20.7501 21.9397Z" fill="#093B35"/>
<g id="Group 5">
<mask id="mask0_68_6567" style="mask-type:luminance" maskUnits="userSpaceOnUse" x="2" y="3" width="18" height="19">
<path id="Clip 4" fill-rule="evenodd" clip-rule="evenodd" d="M2 3.00024H19.1806V21.9398H2V3.00024Z" fill="white"/>
</mask>
<g mask="url(#mask0_68_6567)">
<path id="Fill 3" fill-rule="evenodd" clip-rule="evenodd" d="M13.1103 5.01689L3.69527 16.7919C3.52427 17.0059 3.46127 17.2819 3.52427 17.5469L4.20527 20.4319L7.24427 20.3939C7.53327 20.3909 7.80027 20.2619 7.97727 20.0419C11.1943 16.0169 17.3273 8.34289 17.5013 8.11789C17.6653 7.85189 17.7293 7.47589 17.6433 7.11389C17.5553 6.74289 17.3243 6.42789 16.9913 6.22689C16.9203 6.17789 15.2353 4.86989 15.1833 4.82889C14.5493 4.32089 13.6243 4.40889 13.1103 5.01689ZM3.61327 21.9399C3.26627 21.9399 2.96427 21.7019 2.88327 21.3629L2.06427 17.8919C1.89527 17.1729 2.06327 16.4309 2.52427 15.8549L11.9443 4.07289C11.9483 4.06889 11.9513 4.06389 11.9553 4.05989C12.9883 2.82489 14.8563 2.64289 16.1163 3.65389C16.1663 3.69289 17.8393 4.99289 17.8393 4.99289C18.4473 5.35489 18.9223 6.00189 19.1023 6.76789C19.2813 7.52589 19.1513 8.30789 18.7343 8.96889C18.7033 9.01789 18.6763 9.05989 9.14827 20.9799C8.68927 21.5519 8.00127 21.8849 7.26227 21.8939L3.62327 21.9399H3.61327Z" fill="#093B35"/>
</g>
</g>
<path id="Fill 6" fill-rule="evenodd" clip-rule="evenodd" d="M16.2234 11.6849C16.0634 11.6849 15.9034 11.6339 15.7664 11.5299L10.3144 7.34187C9.98642 7.08987 9.92442 6.61987 10.1764 6.28987C10.4294 5.96187 10.8994 5.90087 11.2284 6.15287L16.6814 10.3399C17.0094 10.5919 17.0714 11.0629 16.8184 11.3919C16.6714 11.5839 16.4484 11.6849 16.2234 11.6849Z" fill="#093B35"/>
</g>
</g>
</svg>
