<svg width="24" height="24" viewBox="0 0 24 24" fill="none" xmlns="http://www.w3.org/2000/svg">
<g id="Style=Light-Outline, Icon=Delete">
<g id="Delete">
<path id="Fill 1" fill-rule="evenodd" clip-rule="evenodd" d="M12.2464 21.9999C10.8914 21.9999 9.57035 21.9849 8.26335 21.9579C6.59135 21.9249 5.43435 20.8409 5.24535 19.1289C4.93035 16.2889 4.39135 9.59491 4.38635 9.52791C4.35235 9.11491 4.66035 8.75291 5.07335 8.71991C5.48035 8.70891 5.84835 8.99491 5.88135 9.40691C5.88635 9.47491 6.42435 16.1459 6.73635 18.9639C6.84335 19.9369 7.36835 20.4389 8.29435 20.4579C10.7944 20.5109 13.3454 20.5139 16.0954 20.4639C17.0794 20.4449 17.6114 19.9529 17.7214 18.9569C18.0314 16.1629 18.5714 9.47491 18.5774 9.40691C18.6104 8.99491 18.9754 8.70691 19.3844 8.71991C19.7974 8.75391 20.1054 9.11491 20.0724 9.52791C20.0664 9.59591 19.5244 16.3069 19.2124 19.1219C19.0184 20.8689 17.8644 21.9319 16.1224 21.9639C14.7894 21.9869 13.5034 21.9999 12.2464 21.9999Z" fill="#093B35"/>
<path id="Fill 3" fill-rule="evenodd" clip-rule="evenodd" d="M20.708 6.98926H3.75C3.336 6.98926 3 6.65326 3 6.23926C3 5.82526 3.336 5.48926 3.75 5.48926H20.708C21.122 5.48926 21.458 5.82526 21.458 6.23926C21.458 6.65326 21.122 6.98926 20.708 6.98926Z" fill="#093B35"/>
<path id="Fill 5" fill-rule="evenodd" clip-rule="evenodd" d="M17.4406 6.98924C16.3026 6.98924 15.3146 6.17824 15.0906 5.06224L14.8476 3.84624C14.7966 3.66124 14.5856 3.50024 14.3456 3.50024H10.1126C9.87258 3.50024 9.66158 3.66124 9.60058 3.89224L9.36758 5.06224C9.14458 6.17824 8.15558 6.98924 7.01758 6.98924C6.60358 6.98924 6.26758 6.65324 6.26758 6.23924C6.26758 5.82524 6.60358 5.48924 7.01758 5.48924C7.44358 5.48924 7.81358 5.18524 7.89758 4.76724L8.14058 3.55124C8.38758 2.61924 9.19458 2.00024 10.1126 2.00024H14.3456C15.2636 2.00024 16.0706 2.61924 16.3076 3.50624L16.5616 4.76724C16.6446 5.18524 17.0146 5.48924 17.4406 5.48924C17.8546 5.48924 18.1906 5.82524 18.1906 6.23924C18.1906 6.65324 17.8546 6.98924 17.4406 6.98924Z" fill="#093B35"/>
</g>
</g>
</svg>
